<?xml version="1.0" encoding="utf-8"?>
<!-- Generator: Adobe Illustrator 26.2.1, SVG Export Plug-In . SVG Version: 6.00 Build 0)  -->
<svg version="1.1" id="Capa_1" xmlns="http://www.w3.org/2000/svg" xmlns:xlink="http://www.w3.org/1999/xlink" x="0px" y="0px"
	 viewBox="0 0 746 198" style="enable-background:new 0 0 746 198;" xml:space="preserve">
<style type="text/css">
	.st0{fill-rule:evenodd;clip-rule:evenodd;fill:#ED3EAE;}
	.st1{fill-rule:evenodd;clip-rule:evenodd;fill:#666666;}
	.st2{fill-rule:evenodd;clip-rule:evenodd;fill:#C080C5;}
</style>
<path class="st0" d="M737.7,121.2c-3.2,4.5-8.3,6.8-14.2,6.8c-11.7,0-20.2-8.2-20.2-20.4c0-12.2,8.5-20.3,20.2-20.3
	c6.4,0,11,2.1,13.9,6.4v-22h7.2v55.8h-6.9V121.2z M724.5,93.6c-8.1,0-13.9,5.5-13.9,14s5.8,14.1,13.9,14.1c7.2,0,13-5.6,13-14.1
	S731.6,93.6,724.5,93.6z M680.7,104.6c11.9,0,16,5.3,16,11.7c0,6.9-5.5,11.7-14.4,11.7c-6.5,0-11-2.1-13.4-5.7v5.3h-6.2v-24.1
	c0-10.9,5.5-16.2,16.4-16.2c6.4,0,12.3,1.8,16.5,5.1l-3,5.4c-3.1-2.6-7.9-4.3-12.6-4.3c-7.1,0-10.7,4.3-10.7,9.6v1.4H680.7z
	 M669.3,115.4c2.7,4.6,6.1,7.1,11.5,7.1c5.5,0,8.8-2.5,8.8-6.5c0-3.4-2-6.2-9.2-6.2h-11.1V115.4z M631.8,128c-7.9,0-13.8-3-17-8.6
	l5.5-3.5c2.6,3.9,6.5,5.7,10.8,5.7c7.8,0,13.7-5.4,13.7-14.1c0-8.5-5.9-14-13.7-14c-4.4,0-8.3,1.8-10.8,5.7l-5.5-3.5
	c3.2-5.6,9.1-8.5,17-8.5c11.5,0,20.3,8.4,20.3,20.3S643.3,128,631.8,128z M598.8,116.6l-8.3-7.7l-15,18.6h-8.9l18.4-23.4l-16.8-16.5
	h9.5l21,19.9V71.7h7.6v55.8h-7.6V116.6z M223.9,70.9c-10,0-15.6-5.5-15.6-15.4V28.4h-8.4v-6.8h8.4V10.3h8.9v11.4h14.1v6.8h-14.1
	v26.7c0,5.3,3.6,8.3,7.7,8.3c2.6,0,5.6-0.8,7-1.8l2.8,5.9C232.6,69.8,227.9,70.9,223.9,70.9z M181.5,43.1c0-9.8-4.8-14.5-13.3-14.5
	c-9.5,0-15.6,5.7-15.6,16.4v25.4h-8.9V21.6h8.6v6.9c3.6-5,10-7.9,17.8-7.9c12,0,20.5,6.9,20.5,21.4v28.4h-8.9V43.1z M105.7,70.9
	c-14.8,0-25.5-10.5-25.5-25.2c0-14.6,10.7-25.1,25.5-25.1s25.6,10.6,25.6,25.1C131.3,60.4,120.5,70.9,105.7,70.9z M105.7,28.4
	c-9.5,0-16.3,6.8-16.3,17.3s6.8,17.4,16.3,17.4s16.6-6.9,16.6-17.4S115.2,28.4,105.7,28.4z M56.5,45.8v24.6h-8.9V21.6h8.6v7.7
	c3.2-5.8,9.3-8.7,18.5-8.7v8.6c-1.3-0.1-2-0.1-2.5-0.1C62.4,29.2,56.5,35.2,56.5,45.8z M25.3,8.1c-5.1,0-8,3-8,8.6v4.9h14.3v6.8
	H17.5v41.9H8.6V28.4H0.2v-6.8h8.4v-5c0-9.6,5.8-15.9,16.3-15.9c3.8,0,7.5,0.9,10,2.9l-2.7,6.8C30.3,9.7,27.9,8.1,25.3,8.1z"/>
<path class="st1" d="M409.1,1.3v27.2c-4.2-5.3-10.4-7.9-17.3-7.9c-14.4,0-24.9,10-24.9,25.1s10.5,25.2,24.9,25.2
	c7.8,0,13.6-2.8,17.6-8.4v7.8h8.6v-69H409.1z M392.6,63.1c-8.9,0-16.6-6.9-16.6-17.4c0-10.5,7.8-17.3,16.6-17.3
	c9.4,0,16.6,6.8,16.6,17.3C409.1,56.2,401.9,63.1,392.6,63.1z"/>
<path class="st1" d="M345.7,43.1c0-9.8-4.8-14.5-13.3-14.5c-9.5,0-15.6,5.7-15.6,16.4v25.4h-8.9V21.6h8.6v6.9c3.7-5,10-7.9,17.8-7.9
	c12,0,20.5,6.9,20.5,21.4v28.4h-8.9V43.1z"/>
<polygon class="st1" points="246.8,5.3 292.7,5.3 292.7,13.3 257,13.3 257,33.3 288.7,33.3 288.7,41.2 257,41.2 257,62.3 
	294.5,62.3 294.5,70.4 246.8,70.4 "/>
<polygon class="st1" points="520.5,121 551.1,121 551.1,104 524.7,104 524.7,97.6 551.1,97.6 551.1,81.4 521.5,81.4 521.5,74.9 
	558.7,74.9 558.7,127.5 520.5,127.5 "/>
<path class="st1" d="M503,107.8c0-9.4-5.8-14-13.5-14c-6.8,0-10.8,3.8-10.8,11.7v22.1h-7.2v-22.9c0-11.7,6.8-17.3,16.9-17.3
	c6,0,11.1,2.3,14.1,6.4v-6h6.9v39.9H503V107.8z"/>
<path class="st1" d="M441.4,87.3c-5.6,0-10.6,2.1-13.9,6.4v-22h-7.2v55.8h6.9v-6.3c3.2,4.5,8.3,6.8,14.2,6.8
	c12.2,0,20.2-8.2,20.2-20.4C461.6,95.4,453.6,87.3,441.4,87.3z M440.8,121.7c-7.6,0-13.4-5.6-13.4-14.1s5.8-14,13.4-14
	c7.7,0,13.5,5.5,13.5,14S448.5,121.7,440.8,121.7z"/>
<polygon class="st1" points="709.8,174.4 733.8,152.5 743.5,152.5 724.9,170.7 745.3,196.5 735.5,196.5 719,176 709.8,184.4 
	709.8,196.5 701.8,196.5 701.8,134.9 709.8,134.9 "/>
<path class="st1" d="M661.1,165.3c-2.8-4.1-7.1-6.1-12-6.1c-8.6,0-14.8,6.6-14.8,15.2c0,9.9,6.2,15.7,14.8,15.7
	c4.8,0,9.1-1.9,12-6.5l6.1,3.8c-3.5,6.1-10.1,9.5-17.9,9.5c-13.5,0-23.3-9.4-23.3-22.5c0-13.1,9.7-22,23.3-22
	c7.9,0,14.5,2.8,17.9,8.9L661.1,165.3z"/>
<path class="st1" d="M571.2,152.5c-7.1,0-13.6,1.9-18,5.2l3.1,6c3.4-2.9,9.3-4.7,14-4.7c7.9,0,12.7,3.9,12.7,10.6v1.6h-13.5
	c-13.1,0-17.7,5.8-17.7,13.2c0,7.3,7.1,12.6,16.8,12.6c6.4,0,11.3-2.3,13.9-6.3v5.8h8.2v-26.6C590.8,157.9,583.3,152.5,571.2,152.5z
	 M583,183.4c-2.9,4.7-7.6,7.5-13.6,7.5c-6.1,0-9.7-2.7-9.7-7.1c0-3.7,2.2-6.8,10.1-6.8H583V183.4z"/>
<path class="st1" d="M511.9,190.3c2.3,0,4.6-0.7,6.2-2.1l2.5,5.7c-2.4,2.1-6.1,3.1-9.6,3.1c-8.1,0-13.8-4.1-13.8-13.8v-23.9h-7.6
	v-6.8h7.6v-9.6h7.8v9.6h12.6v6.8H505v23.6C505,187.6,507.5,190.3,511.9,190.3z"/>
<path class="st1" d="M437.4,190.1c10.1,0,14.4-3.9,14.4-9c0-14.2-35.2-5.2-35.2-26.8c0-9,7-16.6,22.3-16.6c6.8,0,13.9,1.8,18.7,5.2
	l-2.7,6.6c-5.1-3.2-10.5-4.7-16-4.7c-9.9,0-14.1,4.2-14.1,9.2c0,14.2,35.2,5.3,35.2,26.7c0,8.9-7.1,16.5-22.5,16.5
	c-8.9,0-17.6-3-22.3-7.3l3.1-6.5C422.6,187.3,430,190.1,437.4,190.1z"/>
<path class="st2" d="M249.5,176.9c0,8.6,4.3,13,11.9,13c8.3,0,13.6-5.2,13.6-14.6v-22.8h8v44h-7.6v-6.6c-3.2,4.6-8.7,7.1-15,7.1
	c-10.7,0-18.9-6.2-18.9-19.2v-25.3h8V176.9z"/>
<path class="st2" d="M212.3,136.9l-2.4,6.1c-1.7-1.2-3.8-2.1-6.1-2.1c-4.2,0-7.1,2.7-7.1,7.7v3.8h12.8v6.8h-12.6v37.2h-8v-37.2h-7.5
	v-6.8h7.5v-3.9c0-8.3,5.2-14.2,14.5-14.2C206.8,134.4,210.1,135.2,212.3,136.9z"/>
<rect x="323.1" y="134.9" class="st2" width="8.7" height="61.6"/>
<rect x="371.2" y="134.9" class="st2" width="8" height="61.6"/>
</svg>
